<?xml version="1.0" encoding="utf-8"?>
<!-- Generator: Adobe Illustrator 26.5.1, SVG Export Plug-In . SVG Version: 6.00 Build 0)  -->
<svg version="1.1" id="Réteg_1" xmlns="http://www.w3.org/2000/svg" xmlns:xlink="http://www.w3.org/1999/xlink" x="0px" y="0px"
	 viewBox="0 0 448 512" style="enable-background:new 0 0 448 512;" xml:space="preserve">
<style type="text/css">
	.st0{fill:#426148;}
</style>
<path class="st0" d="M224.1,141.1c-63.6,0-114.9,51.3-114.9,114.9s51.3,114.9,114.9,114.9S338.9,319.6,338.9,256
	S287.6,141.1,224.1,141.1z M224.1,330.7c-41.1,0-74.7-33.5-74.7-74.7s33.5-74.7,74.7-74.7s74.7,33.5,74.7,74.7
	S265.1,330.7,224.1,330.7L224.1,330.7z M370.4,136.4c0,14.9-12,26.8-26.8,26.8c-14.9,0-26.8-12-26.8-26.8s12-26.8,26.8-26.8
	S370.4,121.6,370.4,136.4z M446.5,163.6c-1.7-35.9-9.9-67.7-36.2-93.9c-26.2-26.2-58-34.4-93.9-36.2c-37-2.1-147.9-2.1-184.9,0
	C95.7,35.2,64,43.4,37.6,69.6s-34.4,58-36.2,93.9c-2.1,37-2.1,147.9,0,184.9c1.7,35.9,9.9,67.7,36.2,93.9s58,34.4,93.9,36.2
	c37,2.1,147.9,2.1,184.9,0c35.9-1.7,67.7-9.9,93.9-36.2c26.2-26.2,34.4-58,36.2-93.9C448.6,311.4,448.6,200.6,446.5,163.6
	L446.5,163.6z M398.7,388.1c-7.8,19.6-22.9,34.7-42.6,42.6c-29.5,11.7-99.5,9-132.1,9s-102.7,2.6-132.1-9
	c-19.6-7.8-34.7-22.9-42.6-42.6c-11.7-29.5-9-99.5-9-132.1s-2.6-102.7,9-132.1c7.8-19.6,22.9-34.7,42.6-42.6
	c29.5-11.7,99.5-9,132.1-9s102.7-2.6,132.1,9c19.6,7.8,34.7,22.9,42.6,42.6c11.7,29.5,9,99.5,9,132.1S410.4,358.7,398.7,388.1z"/>
</svg>
